# xmcd
# 
# Track frame offsets:
#     150
#     16045
#     31169
#     46654
#     62555
#     78187
#     98928
#     115633
#     139001
#     155898
# 
# Disc length: 2339
# 
# Revision: 2
# Processed by: cddbd v1.5.2PL0 Copyright (c) Steve Scherf et al.
# Submitted via: fre:ac v1.0.17
# 
DISCID=6d09210a
DTITLE=Barbra Streisand - What Matters Most - Deluxe Version - CD2
DYEAR=2011
DGENRE=Pop
TTITLE0=The Way We Were
TTITLE1=What Are You Doing The Rest Of Your Life?
TTITLE2=You Don't Bring Me Flowers
TTITLE3=Papa, Can You Hear Me?
TTITLE4=Pieces Of Dreams
TTITLE5=The Island
TTITLE6=The Summer Knows
TTITLE7=How Do You Keep The Music Playing?
TTITLE8=After The Rain
TTITLE9=A Piece Of Sky
EXTD=
EXTT0=
EXTT1=
EXTT2=
EXTT3=
EXTT4=
EXTT5=
EXTT6=
EXTT7=
EXTT8=
EXTT9=
PLAYORDER=
